<?xml version="1.0" encoding="utf-8"?>
<!-- Generator: Adobe Illustrator 26.5.0, SVG Export Plug-In . SVG Version: 6.00 Build 0)  -->
<svg version="1.1" id="Layer_1" xmlns="http://www.w3.org/2000/svg" xmlns:xlink="http://www.w3.org/1999/xlink" x="0px" y="0px"
	 viewBox="0 0 324 94.09" style="enable-background:new 0 0 324 94.09;" xml:space="preserve">
<style type="text/css">
	.st0{fill:#887D6D;}
	.st1{fill:#FEBE10;}
	.st2{fill:#CE6E19;}
</style>
<g>
	<path class="st0" d="M138.96,44.16c-0.43,2.56-1.7,6.29-2.98,8.81c-0.85-0.24-1.92-0.34-3.14-0.34c-2.5,0-5.16,0.87-9.16,0.87
		c-10.91,0-19.38-6.87-19.38-15.63c0-8.9,9-15.87,20.39-15.87c5.54,0,9.16,1.98,10.22,1.98c0.43,0,0.74-0.15,1.06-0.48h1.33
		l0.48,8.47h-2.08c-1.7-4.79-5.48-7.5-10.59-7.5c-7.61,0-12.88,5.23-12.88,12.87c0,7.79,5.86,13.79,13.47,13.79
		c4.9,0,8.94-2.56,11.13-6.97H138.96z"/>
	<path class="st0" d="M147.11,40.38c0-3.63,1.81-5.76,4.95-5.76c4.05,0,6.92,4.45,6.92,10.65c0,3.82-1.76,6-4.84,6
		C149.02,51.27,147.11,44.45,147.11,40.38z M140.08,43.24c0,5.9,5.22,10.11,12.56,10.11c7.61,0,13.36-4.6,13.36-10.74
		c0-5.86-5.27-10.07-12.56-10.07C145.83,32.54,140.08,37.14,140.08,43.24z"/>
	<path class="st0" d="M163.82,28.67c-1.76-3.48-2.5-4.06-5.54-4.06h-0.37v-1.89h18.47v1.89h-0.91c-4.47,0-5.16,1.35-3.67,4.21
		l8.36,16.16l8.14-17.62c0.74-1.64-0.48-2.76-3.51-2.76h-1.06v-1.89h13.52v1.89h-0.37c-3.14,0-4.31,1.31-6.07,5.13L179.74,53.5
		h-3.35L163.82,28.67z"/>
	<path class="st0" d="M202.36,48.61c-1.54,1.36-2.66,2.03-3.57,2.03c-1.6,0-2.66-1.31-2.66-3.34c0-3.92,3.67-3.58,6.23-5.61V48.61z
		 M211.47,49.24c-0.74,0.48-1.01,0.58-1.44,0.58c-0.8,0-1.17-0.53-1.17-2.23v-9.15c0-4.55-6.07-5.91-8.68-5.91
		c-2.61,0-6.97,1.26-8.78,2.9c-1.38,1.26-1.6,2.66-1.12,4.65l5.96-1.89c-0.43-2.52,0.9-3.73,2.77-3.73c1.92,0,3.35,1.36,3.35,3.24
		v1.79c-4.15,3.1-8.46,2.61-10.97,4.89c-0.91,0.82-1.65,2.32-1.65,3.87c0,3.1,2.4,5.08,6.17,5.08c2.98,0,4.42-1.16,6.55-3.05
		c0.32,1.84,1.76,3,3.73,3c1.76,0,4.42-1.26,6.07-2.9L211.47,49.24z"/>
	<path class="st0" d="M236.38,48.42c0,2.37,0.96,2.85,3.04,2.85v1.55h-12.56v-1.55c2.18-0.15,3.03-1.5,3.03-5.47v-4.21
		c0-3.87-1.17-5.37-3.3-5.37c-1.65,0-3.41,0.73-5.64,2.13v9.82c0,2.18,1.01,3.1,3.14,3.1h0.48v1.55h-13.47v-1.55h0.32
		c2.23,0,3.03-0.87,3.03-3.39v-9.44c0-1.07-0.64-1.69-2.5-2.18l-1.12-0.29v-1.16l9.1-2.81h1.01v4.31c3.89-2.32,7.29-3.78,9.85-3.78
		c3.89,0,5.59,2.52,5.59,8.32V48.42z"/>
	<path class="st0" d="M247.93,47.45c0,1.79,0.91,2.57,2.45,2.57c1.28,0,2.5-0.73,4.05-2.42l0.74,1.35c-1.6,2.61-4.79,4.4-7.72,4.4
		c-3.62,0-6.01-1.84-6.01-6V35.74h-2.82v-1.26c3.19-1.21,6.81-4.74,7.77-7.45h1.54v6.05h6.97l-0.8,2.66h-6.18V47.45z"/>
	<path class="st0" d="M267.09,48.61c-1.54,1.36-2.66,2.03-3.57,2.03c-1.6,0-2.66-1.31-2.66-3.34c0-3.92,3.67-3.58,6.23-5.61V48.61z
		 M276.2,49.24c-0.75,0.48-1.01,0.58-1.44,0.58c-0.8,0-1.17-0.53-1.17-2.23v-9.15c0-4.55-6.07-5.91-8.68-5.91
		c-2.61,0-6.97,1.26-8.78,2.9c-1.38,1.26-1.6,2.66-1.12,4.65l5.96-1.89c-0.43-2.52,0.91-3.73,2.77-3.73c1.92,0,3.35,1.36,3.35,3.24
		v1.79c-4.15,3.1-8.46,2.61-10.97,4.89c-0.9,0.82-1.65,2.32-1.65,3.87c0,3.1,2.39,5.08,6.17,5.08c2.98,0,4.42-1.16,6.55-3.05
		c0.32,1.84,1.76,3,3.73,3c1.76,0,4.42-1.26,6.07-2.9L276.2,49.24z"/>
	<path class="st0" d="M293.66,55.43c2.93,0,4.42,0.78,4.42,2.42c0,2.32-3.25,4.07-7.61,4.07c-4.26,0-7.88-1.89-7.88-4.16
		c0-0.82,0.8-1.89,2.07-2.71c1.44,0.29,2.98,0.39,4.74,0.39H293.66z M303.4,32.74l-7.51,1.74c-1.92-1.31-4.31-1.94-7.19-1.94
		c-6.12,0-10.86,3.19-10.86,7.41c0,2.95,3.3,5.76,6.97,5.9v0.1c-4.95,1.21-7.24,1.99-7.24,4.07c0,2.03,1.7,3.68,4.58,4.55
		c-1.17,1.94-5.22,1.5-5.22,4.6c0,2.76,4.68,4.84,10.91,4.84c8.57,0,15.01-3.48,15.01-8.08c0-3.63-3.62-5.61-8.09-5.61h-4.68
		c-4.47,0-6.6-0.53-6.6-1.6c0-0.77,1.54-1.4,4.42-2.27c5.32,0.15,11.23-1.89,11.23-6.73c0-1.21-0.32-2.18-1.06-3.1l5.32,1.11V32.74z
		 M284.39,39.22c0-2.9,1.49-4.6,3.94-4.6c2.66,0,4.2,2.08,4.2,5.66c0,2.71-1.33,4.26-3.73,4.26
		C285.94,44.54,284.39,42.7,284.39,39.22z"/>
	<path class="st0" d="M309.1,40.82c-0.37-3.44,1.6-6,3.78-6c2.29,0,3.73,2.27,3.78,6H309.1z M322.3,46.29
		c-2.61,2.47-4.52,3.48-6.49,3.48c-3.14,0-6.12-3.05-6.55-7.07H324v-1.4c-1.86-0.87-0.37-3.58-3.51-6.44
		c-1.65-1.5-3.89-2.32-6.71-2.32c-6.65,0-11.39,4.5-11.39,10.89c0,5.86,3.94,9.92,9.74,9.92c4.1,0,8.41-2.32,11.39-6.15L322.3,46.29
		z"/>
	<path class="st0" d="M129.16,80.63c-0.18-0.07-0.29-0.1-0.52-0.1c-0.68,0-1.73,0.32-3.02,0.32c-3.54,0-5.45-1.88-5.45-4.35
		c0-2.35,1.73-4.68,5.57-4.68c1.66,0,2.83,0.45,3.27,0.45c0.12,0,0.2-0.03,0.27-0.1h0.38l0.08,2.28h-0.46
		c-0.56-1.42-1.79-2.19-3.48-2.19c-2.28,0-3.8,1.55-3.8,3.88c0,2.42,1.75,4.21,4.07,4.21c1.49,0,2.81-0.72,3.66-2.03h0.46
		L129.16,80.63z"/>
	<path class="st0" d="M140.29,72.36c0.14-0.03,0.5-0.05,0.73-0.05c1.66,0,2.48,0.83,2.48,2.22c0,1.41-0.7,2.11-2.72,2.2
		c-0.09,0-0.38-0.03-0.49-0.04V72.36z M140.29,77.07c0.39,0.04,0.91,0.03,1.35,0c0.64,0.43,0.87,0.62,1.64,1.33l0.81,0.73
		c1.37,1.24,2.11,1.73,5.1,1.66v-0.39c-1.26-0.12-2.29-0.68-3.64-1.91l-0.99-0.9c-0.24-0.22-0.9-0.8-1.14-0.95
		c1.28-0.48,1.91-1.23,1.91-2.25c0-1.26-1.05-2.47-4.12-2.47c-0.3,0-1.05,0-1.85,0.03c-1.05,0.04-1.82,0.1-2.17,0.1v0.37
		c1.25,0,1.41,0.22,1.41,1.12v5.54c0,0.91-0.14,1.23-1.41,1.19v0.37h4.65v-0.37c-1.38,0.04-1.55-0.18-1.55-1.37V77.07z"/>
	<path class="st0" d="M155.34,80.63v-0.37c1.23,0,1.53-0.18,1.53-0.95v-5.95c0-0.91-0.5-0.94-1.53-0.94v-0.37h7.76l0.14,2.07h-0.41
		l-0.08-0.29c-0.3-1.13-0.55-1.16-1.52-1.16h-2.67v3.22h2.36c0.88,0,1.05-0.1,1.14-1.05h0.41v2.78h-0.41
		c-0.11-0.98-0.3-1.1-1.14-1.1h-2.36v2.51c0,0.86,0.12,0.99,0.9,0.99h1.69c1.53,0,1.84-0.19,2.25-1.55h0.41l-0.23,2.17H155.34z"/>
	<path class="st0" d="M173.67,72.35c0.38-0.03,0.85-0.03,1.11-0.03c1.78,0,2.73,0.32,3.49,1.01c0.93,0.84,1.17,1.96,1.17,2.95
		c0,0.97-0.26,2.13-1.18,2.97c-0.7,0.63-1.64,0.99-3.46,0.99c-0.99,0-1.12-0.12-1.12-0.99V72.35z M171.99,79.14
		c0,0.92-0.15,1.12-1.44,1.12v0.37h4.72c4.45,0,6.01-2.51,6.01-4.54c0-1.04-0.36-2.08-1.31-2.94c-0.93-0.84-2.58-1.22-4.88-1.22
		c-0.58,0-1.35,0-2.17,0.03c-0.64,0.03-1.94,0.08-2.38,0.08v0.37c1.15-0.01,1.44,0.21,1.44,1.22V79.14z"/>
	<path class="st0" d="M188.85,72.04h4.24v0.37c-1.02,0-1.31,0.21-1.31,1.19v5.37c0,1.04,0.21,1.31,1.31,1.28v0.37h-4.24v-0.37
		c1.2,0.03,1.25-0.4,1.25-1.19v-5.62c0-0.75-0.2-1.05-1.25-1.04V72.04z"/>
	<path class="st0" d="M200.4,71.81h0.41c0.06,0.1,0.11,0.17,0.24,0.19c0.14,0.03,0.35,0.04,0.74,0.04h6.42
		c0.77,0,0.9-0.03,0.99-0.23h0.41l0.27,2.38h-0.44c-0.21-1.44-0.52-1.52-1.43-1.52h-2.17v6.5c0,0.94,0.17,1.09,1.76,1.09v0.37h-5.21
		v-0.37c1.52,0,1.76-0.18,1.76-1.09v-6.5H202c-0.9,0-1.2,0.08-1.43,1.52h-0.44L200.4,71.81z"/>
	<path class="st0" d="M228.07,72.04h4.31v0.37c-1.12,0-1.34,0.22-1.34,1.19v3.71c0,1.84,1.35,2.68,3.25,2.68
		c1.69,0,3.27-0.66,3.27-2.71V73.6c0-1.08-0.23-1.19-1.46-1.19v-0.37h3.68v0.37c-1.15,0-1.38,0.22-1.38,1.19v3.84
		c0,2.17-1.84,3.41-4.6,3.41c-2.89,0-4.43-1.26-4.43-3.51v-3.88c0-0.84-0.24-1.05-1.29-1.05V72.04z"/>
	<path class="st0" d="M248.71,73.6v5.3c0,1.08,0.15,1.42,1.52,1.35v0.37h-3.63v-0.37c1.09,0.03,1.28-0.29,1.28-1.19v-6.21
		c-0.36-0.29-0.7-0.4-1.28-0.44v-0.37h2.75l6.77,6.5V73.6c0-1.03-0.18-1.2-1.5-1.19v-0.37h3.68v0.37c-1.02,0-1.34,0.17-1.34,1.22
		v7.08h-0.82L248.71,73.6z"/>
	<path class="st0" d="M265.42,72.04h4.24v0.37c-1.02,0-1.31,0.21-1.31,1.19v5.37c0,1.04,0.21,1.31,1.31,1.28v0.37h-4.24v-0.37
		c1.2,0.03,1.25-0.4,1.25-1.19v-5.62c0-0.75-0.2-1.05-1.25-1.04V72.04z"/>
	<path class="st0" d="M279.06,76.2c0-2.42,1.4-3.94,3.58-3.94c2.23,0,3.83,1.77,3.83,4.27c0,2.32-1.41,3.88-3.52,3.88
		C281.02,80.41,279.06,78.97,279.06,76.2z M277.22,76.57c0,2.47,2.31,4.28,5.48,4.28c3.42,0,5.6-2.18,5.6-4.67
		c0-2.58-2.26-4.36-5.54-4.36C279.54,71.82,277.22,73.81,277.22,76.57z"/>
	<path class="st0" d="M297.88,73.6v5.3c0,1.08,0.15,1.42,1.52,1.35v0.37h-3.63v-0.37c1.09,0.03,1.28-0.29,1.28-1.19v-6.21
		c-0.36-0.29-0.7-0.4-1.28-0.44v-0.37h2.75l6.77,6.5V73.6c0-1.03-0.18-1.2-1.5-1.19v-0.37h3.67v0.37c-1.02,0-1.34,0.17-1.34,1.22
		v7.08h-0.82L297.88,73.6z"/>
	<path class="st1" d="M67.77,13.54c5.97,0,11.68,0.54,16.96,1.51c-8.8-5.39-21.36-8.77-35.3-8.77c-6.69,0-13.04,0.78-18.83,2.19
		C30.27,3.77,23.56,0,15.31,0C6.85,0,0,3.95,0,8.83c0,4.88,6.85,8.83,15.31,8.83c3.69,0,7.07-0.75,9.71-2.01
		c-2.78,2.24-7.31,3.7-12.44,3.7c-1.34,0-2.64-0.11-3.88-0.3c-4.74,4.25-7.49,9.28-7.49,14.69c0,15.16,21.59,27.45,48.21,27.45
		c3.01,0,5.95-0.17,8.81-0.47C36.09,58.55,19.4,48.92,19.4,37.37C19.4,24.21,41.06,13.54,67.77,13.54z"/>
	<path class="st2" d="M82.62,76.43c-3.69,0-7.07,0.75-9.72,2.01c2.78-2.24,7.31-3.7,12.45-3.7c1.34,0,2.64,0.11,3.88,0.3
		c4.73-4.25,7.49-9.28,7.49-14.69c0-15.16-21.58-27.45-48.21-27.45c-3.01,0-5.95,0.16-8.81,0.46c22.14,2.18,38.83,11.81,38.83,23.36
		c0,13.16-21.65,23.83-48.36,23.83c-5.97,0-11.68-0.54-16.96-1.51c8.8,5.39,21.36,8.77,35.31,8.77c6.69,0,13.04-0.78,18.83-2.19
		c0.32,4.71,7.03,8.48,15.28,8.48c8.45,0,15.31-3.96,15.31-8.83C97.94,80.39,91.08,76.43,82.62,76.43z"/>
</g>
</svg>
